<?xml version="1.0" encoding="UTF-8" standalone="no"?><!DOCTYPE svg PUBLIC "-//W3C//DTD SVG 1.1//EN" "http://www.w3.org/Graphics/SVG/1.1/DTD/svg11.dtd"><svg width="100%" height="100%" viewBox="0 0 153 27" version="1.1" xmlns="http://www.w3.org/2000/svg" xmlns:xlink="http://www.w3.org/1999/xlink" xml:space="preserve" xmlns:serif="http://www.serif.com/" style="fill-rule:evenodd;clip-rule:evenodd;stroke-linejoin:round;stroke-miterlimit:1.41421;"><g><g><path d="M23.409,7.962c-0.497,-0.211 -0.988,-0.363 -1.474,-0.456c-0.485,-0.094 -1.107,-0.141 -1.865,-0.141l-6.216,0c-0.616,0 -1.078,0.101 -1.386,0.302c-0.307,0.201 -0.532,0.586 -0.674,1.154l-3.055,12.29c-0.071,0.213 -0.107,0.402 -0.107,0.568c0,0.592 0.474,0.888 1.421,0.888l4.902,0c1.682,0 2.813,-0.053 3.393,-0.159c0.58,-0.106 1.261,-0.336 2.042,-0.689l-1.882,4.617l-13.997,0c-1.515,0 -2.646,-0.296 -3.392,-0.889c-0.746,-0.592 -1.119,-1.587 -1.119,-2.984c0,-0.758 0.142,-1.694 0.426,-2.807l2.345,-9.38c0.592,-2.392 1.492,-4.104 2.7,-5.134c1.207,-1.03 2.782,-1.546 4.724,-1.546l13.641,0l-0.427,4.366Z" style="fill:#64c134;fill-rule:nonzero;"/><path d="M40.738,14.621c1.397,0 2.368,0.23 2.912,0.692c0.545,0.461 0.818,1.106 0.818,1.934c0,0.379 -0.06,0.829 -0.178,1.35l-0.817,3.337c-0.308,1.207 -0.977,2.242 -2.007,3.106c-1.03,0.864 -2.398,1.296 -4.103,1.296l-15.559,0l0.356,-4.021c0.734,0.385 1.391,0.644 1.971,0.776c0.58,0.132 1.581,0.198 3.002,0.198l7.069,0c0.426,0 0.734,-0.065 0.923,-0.195c0.19,-0.13 0.332,-0.389 0.426,-0.779l0.071,-0.332c0.048,-0.177 0.071,-0.298 0.071,-0.365c0,-0.31 -0.319,-0.465 -0.958,-0.465l-7.283,0c-1.373,0 -2.332,-0.231 -2.877,-0.693c-0.545,-0.463 -0.817,-1.097 -0.817,-1.904c0,-0.403 0.059,-0.877 0.178,-1.423l0.781,-3.237c0.332,-1.281 1.072,-2.312 2.22,-3.095c1.149,-0.783 2.528,-1.174 4.138,-1.174l14.423,0l-0.32,4.145c-0.213,-0.378 -0.77,-0.655 -1.67,-0.833c-0.899,-0.177 -1.906,-0.266 -3.019,-0.266l-6.5,0c-0.758,0 -1.197,0.205 -1.315,0.613l-0.142,0.722c-0.047,0.216 -0.006,0.372 0.124,0.468c0.13,0.096 0.409,0.145 0.835,0.145l7.247,0Z" style="fill:#64c134;fill-rule:nonzero;"/><path d="M72.175,3.596l-0.462,4.68c-0.427,-0.304 -0.853,-0.531 -1.279,-0.683c-0.426,-0.152 -1.007,-0.228 -1.741,-0.228l-3.943,0l-3.765,15.063c-0.284,1.113 -0.426,2.013 -0.426,2.7c0,0.379 0.059,0.781 0.177,1.208l-10.088,0c0.331,-0.474 0.633,-1.001 0.906,-1.581c0.272,-0.581 0.527,-1.356 0.763,-2.327l3.766,-15.063l-3.943,0c-0.782,0 -1.379,0.059 -1.794,0.175c-0.414,0.117 -0.965,0.362 -1.652,0.736l1.883,-4.68l21.598,0Z" style="fill:#004900;fill-rule:nonzero;"/><path d="M85.511,16.536l0.569,-2.286c0.071,-0.262 0.106,-0.476 0.106,-0.642c0,-0.477 -0.331,-0.715 -0.995,-0.715l-3.445,0c-0.829,0 -1.338,0.453 -1.528,1.357l-0.568,2.286l5.861,0Zm-6.678,3.267l-0.391,1.562c-0.071,0.26 -0.106,0.473 -0.106,0.639c0,0.71 0.532,1.065 1.598,1.065l8.064,0c0.924,0 1.622,-0.042 2.096,-0.126c0.473,-0.084 1.101,-0.283 1.882,-0.596l-1.634,3.989l-16.696,0c-1.397,0 -2.397,-0.226 -3.001,-0.676c-0.604,-0.45 -0.906,-1.161 -0.906,-2.133c0,-0.64 0.107,-1.386 0.32,-2.24l1.67,-6.612c0.449,-1.825 1.112,-3.123 1.989,-3.893c0.876,-0.77 2.237,-1.155 4.085,-1.155l12.753,0c1.397,0 2.397,0.225 3.001,0.676c0.604,0.45 0.906,1.162 0.906,2.135c0,0.64 -0.106,1.387 -0.319,2.241l-1.279,5.124l-14.032,0Z" style="fill:#004900;fill-rule:nonzero;"/><path d="M103.719,21.361c-0.071,0.261 -0.106,0.475 -0.106,0.641c0,0.711 0.533,1.067 1.598,1.067l4.086,0c1.302,0 2.208,-0.053 2.717,-0.16c0.509,-0.106 1.154,-0.325 1.936,-0.656l-1.634,4.083l-12.966,0c-1.445,0 -2.51,-0.297 -3.197,-0.889c-0.687,-0.593 -1.03,-1.434 -1.03,-2.524c0,-0.237 0.018,-0.492 0.053,-0.765c0.036,-0.272 0.101,-0.61 0.196,-1.013l1.598,-6.328c0.403,-1.611 1.131,-2.879 2.185,-3.804c1.054,-0.924 2.504,-1.386 4.351,-1.386l13.037,0l-0.284,4.145c-0.497,-0.586 -1.741,-0.879 -3.73,-0.879l-4.795,0c-0.664,0 -1.173,0.131 -1.528,0.391c-0.355,0.261 -0.628,0.7 -0.817,1.317l-1.67,6.76Z" style="fill:#004900;fill-rule:nonzero;"/><path d="M130.325,3.596l-1.918,7.947c0.687,-0.833 1.166,-1.361 1.438,-1.583c0.273,-0.222 0.622,-0.333 1.048,-0.333l6.536,0c1.492,0 2.6,0.331 3.322,0.995c0.722,0.664 1.083,1.612 1.083,2.844c0,0.664 -0.106,1.41 -0.319,2.24l-1.706,6.79c-0.236,0.972 -0.355,1.73 -0.355,2.276c0,0.26 0.024,0.479 0.071,0.657c0.048,0.178 0.131,0.48 0.249,0.907l-10.219,0c0.496,-0.593 0.868,-1.115 1.116,-1.565c0.248,-0.45 0.502,-1.209 0.761,-2.276l2.055,-8.215c0.071,-0.261 0.106,-0.462 0.106,-0.605c0,-0.521 -0.392,-0.782 -1.177,-0.782l-3.068,0c-0.928,0 -1.499,0.462 -1.713,1.387l-2.069,8.215c-0.214,0.972 -0.321,1.731 -0.321,2.276c0,0.261 0.024,0.48 0.072,0.658c0.047,0.178 0.131,0.48 0.249,0.907l-10.231,0c0.497,-0.593 0.87,-1.114 1.119,-1.564c0.248,-0.45 0.503,-1.208 0.763,-2.274l3.765,-15.065c0.237,-0.971 0.356,-1.728 0.356,-2.273c0,-0.261 -0.024,-0.48 -0.071,-0.658c-0.048,-0.177 -0.13,-0.479 -0.249,-0.906l9.307,0Z" style="fill:#004900;fill-rule:nonzero;"/></g><text x="141.63px" y="10.409px" style="font-family:'Arial-BoldMT', 'Arial', sans-serif;font-weight:700;font-size:14.25px;">®</text></g></svg>