<?xml version="1.0" encoding="UTF-8" standalone="no"?><!DOCTYPE svg PUBLIC "-//W3C//DTD SVG 1.1//EN" "http://www.w3.org/Graphics/SVG/1.1/DTD/svg11.dtd"><svg width="100%" height="100%" viewBox="0 0 40 40" version="1.1" xmlns="http://www.w3.org/2000/svg" xmlns:xlink="http://www.w3.org/1999/xlink" xml:space="preserve" xmlns:serif="http://www.serif.com/" style="fill-rule:evenodd;clip-rule:evenodd;stroke-linecap:round;stroke-linejoin:round;stroke-miterlimit:1.5;"><g><circle cx="19.799" cy="19.799" r="19.424" style="fill:none;stroke:#48a23e;stroke-width:0.75px;"/><g><path d="M30.75,27.235c-0.193,-1.853 -1.738,-3.308 -3.588,-3.308c-1.157,0 -2.249,0.58 -2.924,1.535c-0.132,-0.023 -0.265,-0.034 -0.399,-0.034c-1.047,0 -1.977,0.711 -2.286,1.72c-0.86,0.511 -1.406,1.463 -1.406,2.483c0,1.582 1.257,2.869 2.802,2.869l4.861,0c0.027,0 0.053,-0.001 0.077,-0.003c0.028,0.002 0.056,0.003 0.085,0.003l1.945,0c1.455,0 2.639,-1.212 2.639,-2.702c0,-1.173 -0.741,-2.199 -1.806,-2.563Zm-0.834,4.363l-1.963,-0.001l-0.077,-0.003l-4.928,0.004c-1.047,0 -1.899,-0.883 -1.899,-1.967c0,-0.751 0.428,-1.448 1.091,-1.776l0.196,-0.096l0.046,-0.214c0.149,-0.704 0.762,-1.215 1.457,-1.215c0.155,0 0.31,0.026 0.46,0.076l0.351,0.118l0.184,-0.321c0.494,-0.86 1.364,-1.373 2.327,-1.373c1.473,0 2.687,1.239 2.707,2.762l0.005,0.367l0.36,0.07c0.823,0.16 1.42,0.904 1.42,1.769c0,0.992 -0.779,1.8 -1.737,1.8Z" style="fill:#48a23e;fill-rule:nonzero;"/><path d="M19.087,25.73c-0.374,0 -0.739,-0.007 -1.098,-0.02c-0.219,-0.008 -0.431,-0.022 -0.645,-0.034c-0.132,-0.008 -0.268,-0.013 -0.398,-0.022c-0.284,-0.021 -0.56,-0.047 -0.833,-0.076c-0.052,-0.005 -0.106,-0.009 -0.157,-0.014c-0.312,-0.035 -0.617,-0.074 -0.914,-0.117c-0.007,-0.001 -0.015,-0.002 -0.023,-0.003c-1.527,-0.226 -2.838,-0.57 -3.863,-0.979c-0.005,-0.002 -0.011,-0.004 -0.016,-0.006c-0.189,-0.076 -0.366,-0.155 -0.535,-0.235c-0.019,-0.009 -0.04,-0.018 -0.06,-0.027c-0.151,-0.074 -0.292,-0.148 -0.426,-0.225c-0.032,-0.018 -0.065,-0.035 -0.096,-0.054c-0.117,-0.068 -0.223,-0.138 -0.325,-0.209c-0.039,-0.027 -0.079,-0.054 -0.116,-0.081c-0.086,-0.064 -0.163,-0.128 -0.237,-0.192c-0.041,-0.036 -0.081,-0.071 -0.118,-0.107c-0.06,-0.058 -0.113,-0.118 -0.163,-0.177c-0.036,-0.041 -0.07,-0.083 -0.099,-0.125c-0.04,-0.055 -0.074,-0.111 -0.105,-0.166c-0.024,-0.045 -0.046,-0.089 -0.064,-0.134c-0.022,-0.055 -0.04,-0.109 -0.052,-0.163c-0.018,-0.074 -0.036,-0.147 -0.036,-0.219l0,-3.703c0.013,0.011 0.028,0.023 0.041,0.034c0.099,0.086 0.199,0.173 0.312,0.256c1.7,1.287 5.099,2.286 10.026,2.286c4.905,0 8.296,-0.991 10.003,-2.269c0.136,-0.099 0.259,-0.201 0.374,-0.306l0.001,0l0,3.929c0,0.249 0.201,0.451 0.451,0.451c0.249,0 0.451,-0.202 0.451,-0.451l0,-5.415l0,-0.226l0,-5.414l0,-0.226c0,-0.082 -0.028,-0.155 -0.066,-0.221c-0.522,-1.936 -4.411,-3.84 -11.214,-3.84c-6.804,0 -10.693,1.904 -11.215,3.84c-0.038,0.066 -0.066,0.139 -0.066,0.221l0,16.695c0,0.073 0.019,0.142 0.052,0.202c0.514,2.181 4.824,3.466 8.939,3.775c0.011,0 0.023,0.001 0.034,0.001c0.234,0 0.432,-0.18 0.449,-0.418c0.019,-0.248 -0.167,-0.465 -0.416,-0.483c-5.015,-0.377 -7.937,-1.903 -8.141,-3.15c-0.004,-0.02 -0.009,-0.039 -0.015,-0.059l0,-3.796c0.013,0.011 0.029,0.023 0.042,0.034c0.098,0.086 0.198,0.173 0.311,0.256c1.7,1.286 5.099,2.285 10.026,2.285c0.249,0 0.451,-0.202 0.451,-0.452c0,-0.249 -0.202,-0.451 -0.451,-0.451Zm-10.107,-12.274c0.135,0.106 0.282,0.211 0.44,0.314c0.033,0.021 0.07,0.042 0.104,0.063c0.133,0.082 0.273,0.163 0.421,0.243c0.054,0.029 0.109,0.058 0.165,0.087c0.165,0.084 0.338,0.165 0.52,0.244c0.03,0.013 0.057,0.027 0.087,0.04c0.211,0.089 0.436,0.175 0.67,0.258c0.064,0.023 0.132,0.044 0.198,0.067c0.186,0.063 0.379,0.123 0.578,0.181c0.071,0.021 0.142,0.042 0.215,0.062c0.264,0.074 0.537,0.143 0.823,0.207c0.039,0.009 0.081,0.017 0.121,0.025c0.252,0.055 0.514,0.106 0.783,0.154c0.091,0.016 0.184,0.031 0.277,0.047c0.255,0.042 0.519,0.081 0.789,0.116c0.07,0.009 0.136,0.019 0.206,0.028c0.336,0.04 0.684,0.075 1.041,0.105c0.088,0.007 0.179,0.012 0.268,0.019c0.286,0.021 0.578,0.038 0.877,0.051c0.109,0.005 0.217,0.01 0.328,0.014c0.389,0.013 0.785,0.022 1.196,0.022c0.41,0 0.806,-0.009 1.195,-0.022c0.111,-0.004 0.219,-0.009 0.328,-0.014c0.299,-0.013 0.591,-0.03 0.877,-0.051c0.089,-0.007 0.18,-0.012 0.269,-0.019c0.356,-0.029 0.704,-0.065 1.04,-0.105c0.07,-0.009 0.136,-0.019 0.206,-0.028c0.27,-0.035 0.533,-0.074 0.789,-0.116c0.093,-0.016 0.186,-0.031 0.277,-0.047c0.269,-0.048 0.531,-0.099 0.783,-0.154c0.04,-0.008 0.082,-0.016 0.121,-0.025c0.286,-0.064 0.559,-0.133 0.823,-0.207c0.073,-0.02 0.144,-0.041 0.216,-0.062c0.199,-0.058 0.391,-0.118 0.577,-0.181c0.066,-0.023 0.134,-0.044 0.198,-0.067c0.234,-0.083 0.459,-0.169 0.67,-0.258c0.03,-0.013 0.058,-0.027 0.087,-0.04c0.182,-0.079 0.355,-0.16 0.52,-0.244c0.056,-0.029 0.111,-0.058 0.165,-0.087c0.148,-0.079 0.288,-0.16 0.421,-0.243c0.034,-0.021 0.071,-0.042 0.104,-0.063c0.158,-0.103 0.305,-0.207 0.44,-0.314c0.034,-0.027 0.064,-0.055 0.097,-0.082c0.059,-0.048 0.121,-0.097 0.175,-0.146l0,3.703c0,0.073 -0.019,0.146 -0.036,0.219c-0.013,0.055 -0.03,0.109 -0.052,0.164c-0.018,0.044 -0.04,0.089 -0.065,0.134c-0.03,0.055 -0.064,0.111 -0.104,0.166c-0.03,0.042 -0.064,0.084 -0.099,0.125c-0.05,0.059 -0.103,0.118 -0.164,0.177c-0.036,0.036 -0.076,0.071 -0.117,0.106c-0.074,0.065 -0.151,0.129 -0.237,0.193c-0.037,0.027 -0.077,0.054 -0.116,0.081c-0.102,0.07 -0.209,0.14 -0.326,0.209c-0.03,0.018 -0.063,0.036 -0.095,0.054c-0.135,0.076 -0.275,0.151 -0.427,0.224c-0.019,0.01 -0.039,0.019 -0.059,0.028c-0.169,0.08 -0.346,0.159 -0.535,0.234c-0.006,0.003 -0.011,0.004 -0.017,0.007c-1.024,0.409 -2.335,0.753 -3.863,0.978c-0.007,0.001 -0.015,0.002 -0.023,0.004c-0.297,0.043 -0.601,0.083 -0.914,0.116c-0.051,0.006 -0.104,0.009 -0.156,0.015c-0.273,0.028 -0.549,0.054 -0.833,0.075c-0.13,0.01 -0.267,0.015 -0.399,0.022c-0.214,0.013 -0.425,0.027 -0.645,0.035c-0.358,0.011 -0.723,0.019 -1.096,0.019c-0.374,0 -0.739,-0.008 -1.098,-0.02c-0.219,-0.008 -0.431,-0.022 -0.645,-0.035c-0.132,-0.008 -0.268,-0.013 -0.398,-0.022c-0.284,-0.02 -0.56,-0.047 -0.833,-0.076c-0.052,-0.005 -0.106,-0.009 -0.157,-0.014c-0.312,-0.034 -0.617,-0.073 -0.914,-0.117c-0.007,-0.001 -0.015,-0.002 -0.023,-0.003c-1.527,-0.226 -2.838,-0.57 -3.863,-0.979c-0.005,-0.001 -0.011,-0.004 -0.016,-0.006c-0.189,-0.076 -0.366,-0.154 -0.535,-0.234c-0.019,-0.01 -0.04,-0.019 -0.06,-0.028c-0.151,-0.073 -0.292,-0.148 -0.426,-0.224c-0.032,-0.018 -0.065,-0.036 -0.096,-0.055c-0.117,-0.068 -0.223,-0.138 -0.325,-0.208c-0.039,-0.028 -0.079,-0.055 -0.116,-0.082c-0.086,-0.063 -0.163,-0.127 -0.237,-0.192c-0.041,-0.036 -0.081,-0.071 -0.118,-0.106c-0.06,-0.059 -0.113,-0.118 -0.163,-0.177c-0.036,-0.042 -0.07,-0.084 -0.099,-0.125c-0.04,-0.056 -0.074,-0.111 -0.105,-0.167c-0.024,-0.044 -0.046,-0.089 -0.064,-0.134c-0.022,-0.054 -0.04,-0.109 -0.052,-0.163c-0.018,-0.073 -0.036,-0.147 -0.036,-0.219l0,-3.703c0.054,0.049 0.116,0.097 0.175,0.146c0.033,0.028 0.063,0.056 0.097,0.083Zm10.107,-5.323c6.116,0 10.378,1.783 10.378,3.384c0,1.601 -4.262,3.384 -10.378,3.384c-6.117,0 -10.379,-1.783 -10.379,-3.384c0,-1.601 4.262,-3.384 10.379,-3.384Z" style="fill:#0d1b68;fill-rule:nonzero;"/></g></g></svg>