<?xml version="1.0" encoding="UTF-8" standalone="no"?><!DOCTYPE svg PUBLIC "-//W3C//DTD SVG 1.1//EN" "http://www.w3.org/Graphics/SVG/1.1/DTD/svg11.dtd"><svg width="100%" height="100%" viewBox="0 0 40 40" version="1.1" xmlns="http://www.w3.org/2000/svg" xmlns:xlink="http://www.w3.org/1999/xlink" xml:space="preserve" xmlns:serif="http://www.serif.com/" style="fill-rule:evenodd;clip-rule:evenodd;stroke-linecap:round;stroke-linejoin:round;stroke-miterlimit:1.5;"><g><circle cx="19.799" cy="19.799" r="19.424" style="fill:none;stroke:#48a23e;stroke-width:0.75px;"/><g><path d="M26.524,16.553c-0.232,-3.513 -3.164,-6.3 -6.734,-6.3c-3.572,0 -6.504,2.788 -6.735,6.302c-3.193,0.402 -5.631,3.122 -5.631,6.386c0,3.554 2.891,6.445 6.445,6.445l9.8,0c0.279,0 0.505,-0.226 0.505,-0.505c0,-0.279 -0.226,-0.505 -0.505,-0.505l-9.8,0c-2.997,0 -5.435,-2.438 -5.435,-5.435c0,-2.883 2.257,-5.264 5.139,-5.419c0.268,-0.014 0.478,-0.236 0.478,-0.504c0,-0.01 0,-0.02 -0.001,-0.03c0.008,-3.158 2.58,-5.726 5.74,-5.726c3.16,0 5.732,2.568 5.739,5.727c-0.001,0.01 -0.001,0.02 -0.001,0.028c0,0.269 0.211,0.49 0.479,0.504c2.892,0.147 5.157,2.527 5.157,5.42c0,1.643 -0.732,3.181 -2.008,4.219c-0.216,0.176 -0.249,0.494 -0.073,0.71c0.176,0.216 0.494,0.249 0.711,0.073c1.512,-1.231 2.38,-3.054 2.38,-5.002c0,-3.274 -2.446,-5.995 -5.65,-6.388Z" style="fill:#0d1b68;fill-rule:nonzero;"/><path d="M19.285,19.315l0,6.437c0,0.279 0.226,0.505 0.505,0.505c0.278,0 0.504,-0.226 0.504,-0.505l0,-6.437c0,-0.279 -0.226,-0.505 -0.504,-0.505c-0.279,0 -0.505,0.226 -0.505,0.505Z" style="fill:#48a23e;fill-rule:nonzero;"/><path d="M22.677,20.251c0.129,0 0.258,-0.05 0.357,-0.148c0.197,-0.197 0.197,-0.517 0,-0.714l-2.887,-2.887c-0.198,-0.198 -0.517,-0.198 -0.714,0l-2.888,2.887c-0.197,0.197 -0.197,0.517 0,0.714c0.197,0.197 0.517,0.197 0.714,0l2.531,-2.531l2.53,2.531c0.099,0.098 0.228,0.148 0.357,0.148Z" style="fill:#48a23e;fill-rule:nonzero;"/></g></g></svg>