<?xml version="1.0" encoding="UTF-8" standalone="no"?><!DOCTYPE svg PUBLIC "-//W3C//DTD SVG 1.1//EN" "http://www.w3.org/Graphics/SVG/1.1/DTD/svg11.dtd"><svg width="100%" height="100%" viewBox="0 0 18 18" version="1.1" xmlns="http://www.w3.org/2000/svg" xmlns:xlink="http://www.w3.org/1999/xlink" xml:space="preserve" xmlns:serif="http://www.serif.com/" style="fill-rule:evenodd;clip-rule:evenodd;stroke-linejoin:round;stroke-miterlimit:1.41421;"><g><path d="M8.991,0.81c-3.544,0 -6.685,2.282 -7.78,5.653c-1.095,3.37 0.105,7.063 2.971,9.146c2.868,2.084 6.75,2.084 9.618,0c2.868,-2.083 4.067,-5.776 2.972,-9.146c-1.095,-3.371 -4.236,-5.653 -7.781,-5.653m8.551,5.402c1.204,3.705 -0.115,7.764 -3.266,10.053c-3.151,2.289 -7.418,2.289 -10.569,0c-3.152,-2.289 -4.47,-6.348 -3.266,-10.053c1.203,-3.703 4.656,-6.212 8.55,-6.212c3.896,0 7.347,2.509 8.551,6.212" style="fill:#fff;fill-rule:nonzero;"/><path d="M6.916,5.257c0.472,0 0.857,0.385 0.857,0.857c0,0.472 -0.385,0.857 -0.857,0.857c-0.474,0 -0.857,-0.385 -0.857,-0.857c0,-0.472 0.383,-0.857 0.857,-0.857m-0.74,2.363l1.479,0l0,4.753l-1.479,0l0,-4.753Z" style="fill:#fff;fill-rule:nonzero;"/><path d="M8.583,7.62l1.417,0l0,0.649l0.02,0c0.197,-0.373 0.679,-0.767 1.399,-0.767c1.495,0 1.772,0.983 1.772,2.264l0,2.607l-1.477,0l0,-2.31c0,-0.552 -0.011,-1.261 -0.768,-1.261c-0.769,0 -0.886,0.6 -0.886,1.219l0,2.352l-1.477,0l0,-4.753Z" style="fill:#fff;fill-rule:nonzero;"/></g></svg>