<?xml version="1.0" encoding="UTF-8" standalone="no"?><!DOCTYPE svg PUBLIC "-//W3C//DTD SVG 1.1//EN" "http://www.w3.org/Graphics/SVG/1.1/DTD/svg11.dtd"><svg width="100%" height="100%" viewBox="0 0 18 18" version="1.1" xmlns="http://www.w3.org/2000/svg" xmlns:xlink="http://www.w3.org/1999/xlink" xml:space="preserve" xmlns:serif="http://www.serif.com/" style="fill-rule:evenodd;clip-rule:evenodd;stroke-linejoin:round;stroke-miterlimit:1.41421;"><g><path d="M8.991,0.81c-3.544,0 -6.685,2.282 -7.78,5.653c-1.095,3.37 0.104,7.063 2.971,9.146c2.868,2.084 6.75,2.084 9.618,0c2.868,-2.083 4.067,-5.776 2.972,-9.146c-1.095,-3.371 -4.236,-5.653 -7.781,-5.653m8.551,5.402c1.204,3.705 -0.115,7.764 -3.266,10.053c-3.151,2.289 -7.418,2.289 -10.569,0c-3.152,-2.289 -4.47,-6.348 -3.266,-10.053c1.203,-3.704 4.656,-6.212 8.55,-6.212c3.895,0 7.347,2.508 8.551,6.212" style="fill:#fff;fill-rule:nonzero;"/><path d="M7.742,8.451c-0.001,0.018 -0.003,0.034 -0.003,0.048c0,0.379 0.001,1.198 0.001,1.198l1.66,0c0,0.123 -0.145,0.618 -0.61,0.933c-0.271,0.184 -0.577,0.269 -0.9,0.29c-0.229,0.015 -0.454,-0.009 -0.674,-0.078c-0.692,-0.222 -1.208,-0.849 -1.279,-1.613c-0.017,-0.188 -0.004,-0.376 0.039,-0.562c0.205,-0.903 1.06,-1.572 2.04,-1.428c0.433,0.065 0.683,0.245 0.911,0.44c0.299,-0.301 0.597,-0.597 0.902,-0.903c-0.074,-0.054 -0.245,-0.228 -0.55,-0.404c-0.455,-0.263 -0.945,-0.395 -1.471,-0.401c-0.098,-0.001 -0.198,0.005 -0.296,0.01c-0.174,0.007 -0.345,0.037 -0.512,0.079c-0.67,0.171 -1.227,0.524 -1.664,1.062c-0.419,0.516 -0.644,1.11 -0.686,1.772c-0.018,0.28 0.004,0.56 0.066,0.835c0.174,0.768 0.577,1.389 1.213,1.854c0.493,0.36 1.047,0.552 1.656,0.586c0.342,0.018 0.683,-0.013 1.016,-0.1c0.622,-0.163 1.138,-0.487 1.526,-1.004c0.562,-0.747 0.697,-1.705 0.532,-2.614l-2.917,0Z" style="fill:#fff;fill-rule:nonzero;"/><path d="M14.41,8.491l-1.05,0l0,-1.051l0,-0.031l-0.031,0l-0.785,0l-0.031,0l0,1.082l-1.052,0l-0.03,0l0,0.847l1.082,0l0,1.082l0.847,0l0,-0.031l0,-1.051l1.082,0l0,-0.032l0,-0.784l0,-0.031l-0.032,0Z" style="fill:#fff;fill-rule:nonzero;"/></g></svg>