<?xml version="1.0" encoding="UTF-8" standalone="no"?><!DOCTYPE svg PUBLIC "-//W3C//DTD SVG 1.1//EN" "http://www.w3.org/Graphics/SVG/1.1/DTD/svg11.dtd"><svg width="100%" height="100%" viewBox="0 0 40 40" version="1.1" xmlns="http://www.w3.org/2000/svg" xmlns:xlink="http://www.w3.org/1999/xlink" xml:space="preserve" xmlns:serif="http://www.serif.com/" style="fill-rule:evenodd;clip-rule:evenodd;stroke-linecap:round;stroke-linejoin:round;stroke-miterlimit:1.5;"><g><circle cx="19.799" cy="19.799" r="19.424" style="fill:none;stroke:#48a23e;stroke-width:0.75px;"/><g><path d="M14.512,27.463c-1.055,0 -1.914,0.858 -1.914,1.913c0,1.055 0.859,1.914 1.914,1.914c1.055,0 1.913,-0.859 1.913,-1.914c0,-1.055 -0.858,-1.913 -1.913,-1.913Zm0,3.1c-0.655,0 -1.187,-0.532 -1.187,-1.187c0,-0.527 0.346,-0.975 0.823,-1.129l0,0.742c0,0.201 0.163,0.363 0.364,0.363c0.2,0 0.363,-0.162 0.363,-0.363l0,-0.742c0.477,0.154 0.824,0.602 0.824,1.129c0,0.655 -0.533,1.187 -1.187,1.187Z" style="fill:#0d1b68;fill-rule:nonzero;"/><path d="M18.774,9.638l-8.525,0c-0.2,0 -0.363,0.162 -0.363,0.363l0,3.1c0,0.201 0.163,0.363 0.363,0.363l8.525,0c0.201,0 0.364,-0.162 0.364,-0.363l0,-3.1c0,-0.201 -0.163,-0.363 -0.364,-0.363Zm-0.363,3.1l-7.798,0l0,-2.374l7.798,0l0,2.374Z" style="fill:#0d1b68;fill-rule:nonzero;"/><path d="M33.074,17.182c-0.009,-0.297 -0.368,-0.459 -0.597,-0.267c-0.272,0.228 -2.087,1.036 -4.787,1.036c-1.628,0 -3.144,-1.021 -3.159,-1.031c-0.132,-0.091 -0.307,-0.084 -0.432,0.015c-0.13,0.104 -1.324,1.016 -3.105,1.016c-0.104,0 -0.205,-0.001 -0.306,-0.004l0,-9.108c0,-0.201 -0.163,-0.364 -0.364,-0.364l-11.625,0c-0.2,0 -0.363,0.163 -0.363,0.364l0,24.025c0,0.201 0.163,0.363 0.363,0.363l11.625,0c0.201,0 0.364,-0.162 0.364,-0.363l0,-1.71c1.006,0.843 2.153,1.515 3.428,2.006c0.127,0.094 0.325,0.091 0.453,0c2.326,-0.896 4.218,-2.387 5.623,-4.433c0.114,-0.165 0.072,-0.391 -0.093,-0.505c-0.166,-0.114 -0.392,-0.072 -0.506,0.094c-1.314,1.912 -3.08,3.309 -5.251,4.153c-7.154,-2.781 -8.035,-10.753 -8.016,-14.66c0.866,0.394 2.508,0.869 4.668,0.869c1.655,0 2.852,-0.679 3.347,-1.019c0.517,0.309 1.864,1.019 3.349,1.019c2.161,0 3.803,-0.475 4.669,-0.87c0.031,4.253 -0.974,7.196 -1.845,8.94c-0.088,0.177 -0.014,0.399 0.163,0.487c0.177,0.089 0.399,0.015 0.487,-0.162c0.949,-1.901 2.051,-5.16 1.91,-9.891Zm-16.623,7.133c0.021,0.072 0.042,0.145 0.064,0.217c0.103,0.339 0.216,0.67 0.336,0.994l-6.602,0c-0.2,0 -0.363,0.162 -0.363,0.363c0,0.201 0.163,0.363 0.363,0.363l6.892,0c0.516,1.207 1.156,2.289 1.912,3.231c0.289,0.359 0.596,0.698 0.919,1.017c-0.007,0.028 -0.011,0.057 -0.011,0.087l0,1.914l-10.898,0l0,-12.449l6.617,0c0.044,0.543 0.107,1.076 0.186,1.599l-5.617,0c-0.2,0 -0.363,0.162 -0.363,0.363c0,0.201 0.163,0.363 0.363,0.363l5.739,0c0.077,0.411 0.166,0.814 0.265,1.211l-6.004,0c-0.2,0 -0.363,0.163 -0.363,0.363c0,0.201 0.163,0.364 0.363,0.364l6.202,0l0,0Zm1.96,-6.622c-1.241,-0.257 -2.032,-0.634 -2.204,-0.778c-0.229,-0.192 -0.588,-0.03 -0.597,0.267c-0.01,0.33 -0.013,0.657 -0.011,0.981l-4.986,0l0,-2.373l7.798,0l0,1.903l0,0Zm1.55,0.218c-0.288,-0.023 -0.563,-0.053 -0.823,-0.091l0,-2.394c0,-0.2 -0.163,-0.363 -0.364,-0.363l-8.525,0c-0.2,0 -0.363,0.163 -0.363,0.363l0,3.1c0,0.201 0.163,0.364 0.363,0.364l5.365,0c0.005,0.145 0.011,0.291 0.019,0.435l-6.57,0l0,-4.698l10.898,0l0,3.284l0,0Zm0,-4.011l-10.898,0l0,-4.698l10.898,0l0,4.698l0,0Z" style="fill:#0d1b68;fill-rule:nonzero;"/><path d="M31.042,19.112c-1.053,0.258 -2.18,0.389 -3.352,0.389c-1.261,0 -2.413,-0.436 -3.157,-0.802c-0.105,-0.051 -0.228,-0.049 -0.331,0.005c-0.683,0.364 -1.795,0.797 -3.208,0.797c-1.172,0 -2.3,-0.131 -3.352,-0.39c-0.234,-0.057 -0.464,0.135 -0.449,0.376c0.101,1.63 0.371,3.175 0.804,4.592c1.101,3.605 3.197,6.108 6.23,7.438c0.092,0.041 0.199,0.041 0.292,0c2.985,-1.31 5.061,-3.812 6.168,-7.438c0.433,-1.417 0.703,-2.962 0.804,-4.592c0.015,-0.241 -0.215,-0.433 -0.449,-0.375Zm-7.033,11.499c-2,-1.011 -3.529,-2.618 -4.566,-4.795l4.566,0l0,4.795Zm0,-5.521l-4.885,0c-0.159,-0.391 -0.303,-0.799 -0.432,-1.223c-0.373,-1.222 -0.621,-2.545 -0.738,-3.94c0.967,0.2 1.987,0.301 3.04,0.301c1.238,0 2.265,-0.301 3.015,-0.626l0,5.488Zm0.727,5.52l0,-4.794l4.509,0c-1.032,2.188 -2.542,3.794 -4.509,4.794Zm5.256,-6.743c-0.13,0.424 -0.273,0.832 -0.43,1.223l-4.826,0l0,-5.501c0.787,0.329 1.826,0.639 2.954,0.639c1.052,0 2.073,-0.101 3.04,-0.301c-0.117,1.395 -0.365,2.718 -0.738,3.94Z" style="fill:#48a23e;fill-rule:nonzero;"/></g></g></svg>