<?xml version="1.0" encoding="UTF-8" standalone="no"?><!DOCTYPE svg PUBLIC "-//W3C//DTD SVG 1.1//EN" "http://www.w3.org/Graphics/SVG/1.1/DTD/svg11.dtd"><svg width="100%" height="100%" viewBox="0 0 18 18" version="1.1" xmlns="http://www.w3.org/2000/svg" xmlns:xlink="http://www.w3.org/1999/xlink" xml:space="preserve" xmlns:serif="http://www.serif.com/" style="fill-rule:evenodd;clip-rule:evenodd;stroke-linejoin:round;stroke-miterlimit:1.41421;"><g><path d="M8.991,0.81c-3.544,0 -6.685,2.282 -7.78,5.653c-1.095,3.37 0.104,7.063 2.971,9.146c2.868,2.084 6.75,2.084 9.618,0c2.868,-2.083 4.067,-5.776 2.972,-9.146c-1.095,-3.371 -4.236,-5.653 -7.781,-5.653m8.551,5.402c1.204,3.705 -0.115,7.764 -3.266,10.053c-3.151,2.289 -7.418,2.289 -10.569,0c-3.152,-2.289 -4.47,-6.348 -3.266,-10.053c1.203,-3.704 4.656,-6.212 8.55,-6.212c3.895,0 7.347,2.508 8.551,6.212" style="fill:#fff;fill-rule:nonzero;"/><path d="M8.052,10.141c0.791,-0.41 1.575,-0.817 2.369,-1.228c-0.795,-0.415 -1.579,-0.824 -2.369,-1.236l0,2.464Zm-2.089,1.367c-0.288,-0.095 -0.482,-0.283 -0.586,-0.569c-0.254,-0.697 -0.329,-3.613 0.16,-4.188c0.166,-0.196 0.381,-0.312 0.637,-0.339c1.316,-0.141 5.381,-0.121 5.849,0.048c0.274,0.099 0.469,0.278 0.576,0.553c0.277,0.721 0.286,3.343 -0.037,4.037c-0.088,0.188 -0.231,0.322 -0.413,0.416c-0.49,0.258 -5.541,0.254 -6.186,0.042" style="fill:#fff;"/></g></svg>