<?xml version="1.0" encoding="UTF-8" standalone="no"?><!DOCTYPE svg PUBLIC "-//W3C//DTD SVG 1.1//EN" "http://www.w3.org/Graphics/SVG/1.1/DTD/svg11.dtd"><svg width="100%" height="100%" viewBox="0 0 60 60" version="1.1" xmlns="http://www.w3.org/2000/svg" xmlns:xlink="http://www.w3.org/1999/xlink" xml:space="preserve" xmlns:serif="http://www.serif.com/" style="fill-rule:evenodd;clip-rule:evenodd;stroke-linejoin:round;stroke-miterlimit:1.41421;"><rect id="Artboard1" x="0" y="0" width="60" height="60" style="fill:none;"/><g><path d="M49.926,29.919l-2.038,0l0,-3.521c0,-0.512 -0.415,-0.927 -0.927,-0.927l-5.495,0c-0.525,-2.459 -1.837,-4.697 -3.748,-6.369c-1.909,-1.672 -4.303,-2.671 -6.82,-2.864l0,-1.092l5.619,0c0.512,0 0.927,-0.415 0.927,-0.927l0,-4.402c0,-0.512 -0.415,-0.927 -0.927,-0.927l-6.546,0c-0.512,0 -0.927,0.415 -0.927,0.927l0,6.425c-2.496,0.204 -4.867,1.201 -6.762,2.86c-1.911,1.672 -3.223,3.91 -3.748,6.369l-5.495,0c-0.512,0 -0.927,0.415 -0.927,0.927l0,3.521l-2.038,0c-0.512,0 -0.927,0.415 -0.927,0.927l0,19.337c0,0.512 0.415,0.927 0.927,0.927l39.852,0c0.512,0 0.927,-0.415 0.927,-0.927l0,-19.337c0,-0.512 -0.415,-0.927 -0.927,-0.927Zm-19.028,-17.816l0,-1.36l4.692,0l0,2.549l-4.692,0l0,-1.189Zm-0.898,5.953c4.523,0 8.458,3.121 9.562,7.415l-19.124,0c1.104,-4.294 5.04,-7.415 9.562,-7.415Zm-16.034,9.269l32.069,0l0,2.594l-32.069,0l0,-2.594Zm18.129,21.932l-4.19,0l0,-6.948l4.19,0l0,6.948Zm16.904,0l-11.121,0l0,-11.832c0,-0.512 -0.415,-0.927 -0.927,-0.927c-0.512,0 -0.927,0.415 -0.927,0.927l0,11.832l-2.075,0l0,-7.875c0,-0.512 -0.415,-0.927 -0.927,-0.927l-6.044,0c-0.512,0 -0.927,0.415 -0.927,0.927l0,7.875l-2.075,0l0,-11.832c0,-0.512 -0.415,-0.927 -0.927,-0.927c-0.512,0 -0.927,0.415 -0.927,0.927l0,11.832l-11.121,0l0,-17.484l37.998,0l0,17.484l0,0Z" style="fill:#fff;fill-rule:nonzero;"/><path d="M37.861,34.186c-0.013,-0.06 -0.031,-0.118 -0.054,-0.174c-0.023,-0.056 -0.052,-0.11 -0.085,-0.16c-0.034,-0.051 -0.073,-0.098 -0.115,-0.141c-0.043,-0.042 -0.09,-0.081 -0.141,-0.115c-0.05,-0.033 -0.104,-0.062 -0.161,-0.085c-0.055,-0.023 -0.114,-0.041 -0.173,-0.053c-0.119,-0.024 -0.242,-0.024 -0.361,0c-0.06,0.012 -0.118,0.03 -0.174,0.053c-0.056,0.023 -0.11,0.052 -0.16,0.085c-0.051,0.034 -0.098,0.073 -0.141,0.115c-0.042,0.043 -0.081,0.09 -0.115,0.141c-0.033,0.05 -0.062,0.104 -0.085,0.16c-0.023,0.056 -0.042,0.114 -0.053,0.174c-0.012,0.059 -0.018,0.12 -0.018,0.18c0,0.061 0.006,0.122 0.018,0.182c0.011,0.058 0.03,0.117 0.053,0.173c0.023,0.056 0.052,0.11 0.085,0.16c0.034,0.051 0.073,0.098 0.115,0.141c0.043,0.042 0.09,0.081 0.141,0.116c0.05,0.033 0.104,0.062 0.16,0.085c0.056,0.023 0.114,0.041 0.174,0.053c0.059,0.012 0.12,0.017 0.18,0.017c0.061,0 0.122,-0.005 0.181,-0.017c0.06,-0.012 0.118,-0.03 0.174,-0.053c0.056,-0.023 0.11,-0.052 0.16,-0.085c0.051,-0.035 0.098,-0.074 0.141,-0.116c0.042,-0.043 0.081,-0.09 0.115,-0.141c0.033,-0.05 0.062,-0.104 0.085,-0.16c0.023,-0.056 0.042,-0.115 0.054,-0.173c0.012,-0.06 0.017,-0.121 0.017,-0.182c0,-0.06 -0.005,-0.121 -0.017,-0.18Z" style="fill:#fff;fill-rule:nonzero;"/><path d="M23.957,34.186c-0.011,-0.06 -0.03,-0.118 -0.053,-0.174c-0.023,-0.056 -0.052,-0.11 -0.085,-0.16c-0.033,-0.051 -0.072,-0.098 -0.115,-0.141c-0.043,-0.042 -0.09,-0.081 -0.141,-0.115c-0.05,-0.033 -0.104,-0.062 -0.159,-0.085c-0.057,-0.023 -0.115,-0.041 -0.174,-0.053c-0.119,-0.024 -0.242,-0.024 -0.362,0c-0.059,0.012 -0.118,0.03 -0.173,0.053c-0.057,0.023 -0.11,0.052 -0.16,0.085c-0.051,0.034 -0.099,0.073 -0.141,0.115c-0.043,0.043 -0.082,0.09 -0.115,0.141c-0.034,0.05 -0.062,0.104 -0.086,0.16c-0.023,0.056 -0.041,0.114 -0.052,0.174c-0.012,0.059 -0.019,0.12 -0.019,0.18c0,0.245 0.099,0.483 0.272,0.656c0.042,0.042 0.089,0.081 0.14,0.116c0.05,0.033 0.104,0.062 0.161,0.085c0.055,0.023 0.114,0.041 0.173,0.053c0.059,0.012 0.121,0.017 0.181,0.017c0.06,0 0.121,-0.005 0.181,-0.017c0.059,-0.012 0.117,-0.03 0.174,-0.053c0.055,-0.023 0.109,-0.052 0.159,-0.085c0.051,-0.035 0.098,-0.074 0.141,-0.116c0.172,-0.173 0.272,-0.411 0.272,-0.656c0,-0.06 -0.007,-0.121 -0.019,-0.18Z" style="fill:#fff;fill-rule:nonzero;"/><path d="M19.516,33.209l-5.237,0c-0.512,0 -0.927,0.415 -0.927,0.927l0,3.985c0,0.512 0.415,0.927 0.927,0.927l5.237,0c0.512,0 0.927,-0.415 0.927,-0.927l0,-3.985c-0.001,-0.512 -0.415,-0.927 -0.927,-0.927Zm-0.927,3.986l-3.383,0l0,-2.132l3.383,0l0,2.132Z" style="fill:#fff;fill-rule:nonzero;"/><path d="M19.516,41.477l-5.237,0c-0.512,0 -0.927,0.414 -0.927,0.926l0,3.986c0,0.512 0.415,0.927 0.927,0.927l5.237,0c0.512,0 0.927,-0.415 0.927,-0.927l0,-3.986c-0.001,-0.512 -0.415,-0.926 -0.927,-0.926Zm-0.927,3.985l-3.383,0l0,-2.132l3.383,0l0,2.132Z" style="fill:#fff;fill-rule:nonzero;"/><path d="M32.619,33.209l-5.237,0c-0.512,0 -0.927,0.415 -0.927,0.927l0,3.985c0,0.512 0.415,0.927 0.927,0.927l5.237,0c0.511,0 0.926,-0.415 0.926,-0.927l0,-3.985c0,-0.512 -0.415,-0.927 -0.926,-0.927Zm-0.927,3.986l-3.384,0l0,-2.132l3.384,0l0,2.132Z" style="fill:#fff;fill-rule:nonzero;"/><path d="M45.721,33.209l-5.237,0c-0.512,0 -0.926,0.415 -0.926,0.927l0,3.985c0,0.512 0.414,0.927 0.926,0.927l5.237,0c0.512,0 0.927,-0.415 0.927,-0.927l0,-3.985c0,-0.512 -0.415,-0.927 -0.927,-0.927Zm-0.926,3.986l-3.384,0l0,-2.132l3.384,0l0,2.132Z" style="fill:#fff;fill-rule:nonzero;"/><path d="M45.721,41.477l-5.237,0c-0.512,0 -0.926,0.414 -0.926,0.926l0,3.986c0,0.512 0.414,0.927 0.926,0.927l5.237,0c0.512,0 0.927,-0.415 0.927,-0.927l0,-3.986c0,-0.512 -0.415,-0.926 -0.927,-0.926Zm-0.926,3.985l-3.384,0l0,-2.132l3.384,0l0,2.132Z" style="fill:#fff;fill-rule:nonzero;"/></g></svg>