<?xml version="1.0" encoding="UTF-8" standalone="no"?><!DOCTYPE svg PUBLIC "-//W3C//DTD SVG 1.1//EN" "http://www.w3.org/Graphics/SVG/1.1/DTD/svg11.dtd"><svg width="100%" height="100%" viewBox="0 0 60 60" version="1.1" xmlns="http://www.w3.org/2000/svg" xmlns:xlink="http://www.w3.org/1999/xlink" xml:space="preserve" xmlns:serif="http://www.serif.com/" style="fill-rule:evenodd;clip-rule:evenodd;stroke-linejoin:round;stroke-miterlimit:1.41421;"><rect id="Artboard1" x="0" y="0" width="60" height="60" style="fill:none;"/><g><path d="M44.462,21.382l-6.768,0c0.929,0.831 1.724,1.805 2.347,2.893l4.421,0c0.799,0 1.447,-0.648 1.447,-1.447c0,-0.798 -0.648,-1.446 -1.447,-1.446Z" style="fill:#fff;fill-rule:nonzero;"/><path d="M44.462,25.029l-4.031,0c0.435,0.908 0.756,1.876 0.942,2.893l3.089,0c0.799,0 1.447,-0.648 1.447,-1.447c0,-0.798 -0.648,-1.446 -1.447,-1.446Z" style="fill:#fff;fill-rule:nonzero;"/><path d="M44.462,17.737l-10.707,0c-0.623,0 -1.148,0.395 -1.352,0.946c1.601,0.34 3.074,1.018 4.358,1.946l7.702,0c0.799,0 1.447,-0.647 1.447,-1.446c0,-0.799 -0.649,-1.446 -1.448,-1.446Z" style="fill:#fff;fill-rule:nonzero;"/><path d="M33.755,16.982l10.707,0c0.799,0 1.447,-0.647 1.447,-1.446c0,-0.798 -0.648,-1.446 -1.447,-1.446l-10.707,0c-0.799,0 -1.446,0.648 -1.446,1.447c0,0.799 0.647,1.445 1.446,1.445Z" style="fill:#fff;fill-rule:nonzero;"/><path d="M44.462,28.674l-2.974,0c0.05,0.436 0.081,0.877 0.081,1.326c0,0.532 -0.048,1.054 -0.118,1.567l3.011,0c0.798,0 1.446,-0.648 1.446,-1.447c0,-0.799 -0.647,-1.446 -1.446,-1.446Z" style="fill:#fff;fill-rule:nonzero;"/><path d="M44.462,32.321l-3.127,0c-0.209,1.022 -0.561,1.989 -1.021,2.892l4.148,0c0.799,0 1.447,-0.647 1.447,-1.446c0,-0.799 -0.648,-1.446 -1.447,-1.446Z" style="fill:#fff;fill-rule:nonzero;"/><path d="M44.462,35.966l-4.568,0c-0.663,1.095 -1.492,2.074 -2.468,2.893l7.036,0c0.799,0 1.447,-0.648 1.447,-1.446c0,-0.799 -0.648,-1.447 -1.447,-1.447Z" style="fill:#fff;fill-rule:nonzero;"/><path d="M15.536,31.326l2.974,0c-0.05,-0.436 -0.081,-0.877 -0.081,-1.326c0,-0.532 0.048,-1.053 0.118,-1.567l-3.011,0c-0.798,0.001 -1.446,0.648 -1.446,1.447c0,0.798 0.648,1.446 1.446,1.446Z" style="fill:#fff;fill-rule:nonzero;"/><path d="M15.536,34.972l4.031,0c-0.434,-0.907 -0.755,-1.875 -0.941,-2.892l-3.09,0c-0.798,0 -1.446,0.647 -1.446,1.446c0,0.799 0.648,1.446 1.446,1.446Z" style="fill:#fff;fill-rule:nonzero;"/><path d="M15.536,27.68l3.128,0c0.208,-1.022 0.561,-1.989 1.02,-2.892l-4.148,0c-0.798,-0.001 -1.446,0.646 -1.446,1.446c0,0.799 0.648,1.446 1.446,1.446Z" style="fill:#fff;fill-rule:nonzero;"/><path d="M15.536,24.034l4.569,0c0.663,-1.094 1.492,-2.073 2.467,-2.892l-7.036,0c-0.798,0 -1.446,0.647 -1.446,1.445c0,0.799 0.648,1.447 1.446,1.447Z" style="fill:#fff;fill-rule:nonzero;"/><path d="M15.536,38.618l6.769,0c-0.929,-0.831 -1.724,-1.804 -2.347,-2.892l-4.422,0c-0.798,0 -1.446,0.647 -1.446,1.446c0,0.799 0.648,1.446 1.446,1.446Z" style="fill:#fff;fill-rule:nonzero;"/><path d="M15.536,42.264l10.707,0c0.624,0 1.149,-0.395 1.353,-0.946c-1.601,-0.34 -3.074,-1.019 -4.357,-1.946l-7.703,0c-0.798,-0.001 -1.446,0.646 -1.446,1.446c0,0.799 0.648,1.446 1.446,1.446Z" style="fill:#fff;fill-rule:nonzero;"/><path d="M26.243,43.018l-10.707,0c-0.798,0 -1.446,0.647 -1.446,1.446c0,0.798 0.648,1.446 1.446,1.446l10.707,0c0.8,0 1.447,-0.648 1.447,-1.447c0,-0.799 -0.647,-1.445 -1.447,-1.445Z" style="fill:#fff;fill-rule:nonzero;"/><path d="M29.999,19.876c-5.582,0 -10.124,4.541 -10.124,10.124c0,5.583 4.542,10.125 10.124,10.125c5.583,0 10.124,-4.542 10.124,-10.125c0,-5.583 -4.541,-10.124 -10.124,-10.124Zm0,17.356c-3.987,0 -7.231,-3.244 -7.231,-7.232c0,-3.988 3.244,-7.232 7.231,-7.232c3.989,0 7.232,3.244 7.232,7.232c0,3.988 -3.243,7.232 -7.232,7.232Z" style="fill:#fff;fill-rule:nonzero;"/><path d="M30.421,29.023l0,-2.499c1.456,0.027 1.445,1.433 2.299,1.433c0.447,0 0.831,-0.301 0.831,-0.814c0,-1.289 -2.105,-1.933 -3.13,-1.96l0,-0.701c0,-0.224 -0.172,-0.447 -0.397,-0.447c-0.222,0 -0.392,0.223 -0.392,0.447l0,0.701c-1.643,0.051 -3.13,0.974 -3.13,2.761c0,1.46 1.181,2.315 3.13,2.669l0,2.75c-2.186,-0.092 -1.04,-1.907 -2.513,-1.907c-0.497,0 -0.815,0.304 -0.815,0.828c0,1.04 1.106,2.368 3.328,2.423l0,0.813c0,0.224 0.17,0.447 0.392,0.447c0.225,0 0.397,-0.223 0.397,-0.447l0,-0.813c1.959,-0.119 3.273,-1.015 3.273,-2.777c0,-2.026 -1.536,-2.538 -3.273,-2.907Zm-0.789,-0.144c-0.986,-0.198 -1.475,-0.578 -1.475,-1.238c0,-0.564 0.578,-1.091 1.475,-1.118l0,2.356Zm0.789,4.483l0,-2.604c0.708,0.157 1.619,0.42 1.619,1.314c0,0.868 -0.831,1.238 -1.619,1.29Z" style="fill:#fff;fill-rule:nonzero;"/></g></svg>