<?xml version="1.0" encoding="UTF-8" standalone="no"?><!DOCTYPE svg PUBLIC "-//W3C//DTD SVG 1.1//EN" "http://www.w3.org/Graphics/SVG/1.1/DTD/svg11.dtd"><svg width="100%" height="100%" viewBox="0 0 60 60" version="1.1" xmlns="http://www.w3.org/2000/svg" xmlns:xlink="http://www.w3.org/1999/xlink" xml:space="preserve" xmlns:serif="http://www.serif.com/" style="fill-rule:evenodd;clip-rule:evenodd;stroke-linejoin:round;stroke-miterlimit:1.41421;"><rect id="Artboard1" x="0" y="0" width="60" height="60" style="fill:none;"/><g><path d="M38.193,44.744c-0.358,-0.091 -0.722,0.129 -0.811,0.487l-0.669,2.677c-0.09,0.359 0.128,0.722 0.487,0.812c0.054,0.014 0.109,0.02 0.163,0.02c0.3,0 0.572,-0.203 0.648,-0.507l0.67,-2.677c0.089,-0.359 -0.129,-0.722 -0.488,-0.812Z" style="fill:#fff;fill-rule:nonzero;"/><path d="M30,31.339c0.087,0 0.174,-0.017 0.256,-0.051l7.362,-3.047c0.341,-0.141 0.503,-0.533 0.362,-0.874c-0.141,-0.342 -0.534,-0.503 -0.875,-0.363l-7.105,2.941l-18.74,-7.754l0,-0.222c0,-0.37 -0.3,-0.67 -0.669,-0.67c-0.37,0 -0.67,0.3 -0.67,0.67l0,0.669c0,0.271 0.164,0.515 0.414,0.618l19.409,8.032c0.082,0.034 0.169,0.051 0.256,0.051Z" style="fill:#fff;fill-rule:nonzero;"/><path d="M37.962,38.195c-0.163,-0.331 -0.564,-0.468 -0.896,-0.303c-1.271,0.628 -3.394,1.359 -6.397,1.459l0,-6.005c0,-0.369 -0.3,-0.669 -0.669,-0.669c-0.369,0 -0.669,0.3 -0.669,0.669l0,5.999c-8.311,-0.265 -10.992,-5.3 -11.378,-6.138l0,-4.546c0,-0.369 -0.3,-0.669 -0.669,-0.669c-0.37,0 -0.67,0.3 -0.67,0.669l0,4.685c0,0.085 0.016,0.17 0.048,0.249c0.116,0.29 2.965,7.113 13.338,7.113c3.626,0 6.166,-0.879 7.659,-1.617c0.332,-0.163 0.467,-0.564 0.303,-0.896Z" style="fill:#fff;fill-rule:nonzero;"/><path d="M40.039,45.393c-0.37,0 -0.669,0.3 -0.669,0.67l0,2.008c0,0.369 0.299,0.669 0.669,0.669c0.37,0 0.669,-0.3 0.669,-0.669l0,-2.008c0,-0.37 -0.299,-0.67 -0.669,-0.67Z" style="fill:#fff;fill-rule:nonzero;"/><path d="M49.409,21.299c-0.37,0 -0.669,0.3 -0.669,0.67l0,0.22l-8.031,3.306l0,-1.209l8.956,-3.707c0.25,-0.103 0.414,-0.347 0.414,-0.618c0,-0.271 -0.164,-0.515 -0.413,-0.619l-19.41,-8.031c-0.164,-0.068 -0.348,-0.068 -0.512,0l-19.409,8.031c-0.25,0.104 -0.414,0.348 -0.414,0.619c0,0.271 0.164,0.515 0.414,0.618l19.409,8.032c0.082,0.034 0.169,0.05 0.256,0.05c0.087,0 0.174,-0.016 0.256,-0.05l7.018,-2.904c0.342,-0.141 0.504,-0.533 0.363,-0.875c-0.142,-0.341 -0.533,-0.502 -0.875,-0.362l-6.762,2.798l-17.659,-7.307l17.659,-7.308l17.659,7.308l-7.684,3.179l-7.36,-2.748c0.039,-0.139 0.062,-0.282 0.062,-0.431c0,-1.126 -1.176,-2.008 -2.677,-2.008c-1.501,0 -2.677,0.882 -2.677,2.008c0,1.125 1.176,2.008 2.677,2.008c0.67,0 1.268,-0.183 1.732,-0.478l7.638,2.852l0,16.489c-0.777,0.277 -1.339,1.013 -1.339,1.884c0,1.107 0.901,2.008 2.008,2.008c1.107,0 2.008,-0.901 2.008,-2.008c0,-0.871 -0.561,-1.606 -1.339,-1.884l0,-3.799c1.922,-1.45 2.611,-3.382 2.641,-3.468c0.024,-0.07 0.037,-0.144 0.037,-0.218l0,-4.685c0,-0.37 -0.3,-0.67 -0.67,-0.67c-0.37,0 -0.669,0.3 -0.669,0.67l0,4.561c-0.116,0.284 -0.518,1.158 -1.339,2.022l0,-8.302l8.956,-3.686c0.251,-0.103 0.414,-0.348 0.414,-0.619l0,-0.669c0,-0.37 -0.299,-0.67 -0.669,-0.67Zm-19.409,-0.669c-0.817,0 -1.339,-0.396 -1.339,-0.669c0,-0.273 0.522,-0.67 1.339,-0.67c0.817,0 1.339,0.397 1.339,0.67c0,0.273 -0.522,0.669 -1.339,0.669Zm10.039,22.756c-0.369,0 -0.669,-0.301 -0.669,-0.67c0,-0.368 0.3,-0.669 0.669,-0.669c0.37,0 0.669,0.301 0.669,0.669c0,0.369 -0.299,0.67 -0.669,0.67Z" style="fill:#fff;fill-rule:nonzero;"/><path d="M42.696,45.231c-0.089,-0.358 -0.454,-0.577 -0.811,-0.487c-0.359,0.09 -0.577,0.453 -0.487,0.812l0.669,2.677c0.076,0.304 0.349,0.507 0.649,0.507c0.053,0 0.108,-0.006 0.162,-0.02c0.359,-0.09 0.577,-0.453 0.488,-0.812l-0.67,-2.677Z" style="fill:#fff;fill-rule:nonzero;"/></g></svg>