<?xml version="1.0" encoding="UTF-8" standalone="no"?><!DOCTYPE svg PUBLIC "-//W3C//DTD SVG 1.1//EN" "http://www.w3.org/Graphics/SVG/1.1/DTD/svg11.dtd"><svg width="100%" height="100%" viewBox="0 0 60 60" version="1.1" xmlns="http://www.w3.org/2000/svg" xmlns:xlink="http://www.w3.org/1999/xlink" xml:space="preserve" xmlns:serif="http://www.serif.com/" style="fill-rule:evenodd;clip-rule:evenodd;stroke-linejoin:round;stroke-miterlimit:1.41421;"><rect id="Artboard1" x="0" y="0" width="60" height="60" style="fill:none;"/><g><path d="M38.301,28.755l-4.15,0l0,-4.151c0,-0.458 -0.372,-0.83 -0.831,-0.83l-6.64,0c-0.459,0 -0.83,0.372 -0.83,0.83l0,4.151l-4.151,0c-0.458,0 -0.83,0.372 -0.83,0.83l0,6.641c0,0.458 0.372,0.83 0.83,0.83l4.151,0l0,4.15c0,0.459 0.371,0.831 0.83,0.831l6.64,0c0.459,0 0.831,-0.372 0.831,-0.831l0,-4.15l4.15,0c0.459,0 0.83,-0.372 0.83,-0.83l0,-6.641c0,-0.458 -0.371,-0.83 -0.83,-0.83Zm-0.83,6.641l-4.151,0c-0.458,0 -0.83,0.371 -0.83,0.83l0,4.15l-4.98,0l0,-4.15c0,-0.459 -0.372,-0.83 -0.83,-0.83l-4.151,0l0,-4.981l4.151,0c0.458,0 0.83,-0.372 0.83,-0.83l0,-4.151l4.98,0l0,4.151c0,0.458 0.372,0.83 0.83,0.83l4.151,0l0,4.981Z" style="fill:#fff;fill-rule:nonzero;"/><path d="M45.142,18.794l-8.501,0l0,-2.376c0,-1.894 -1.569,-3.435 -3.497,-3.435l-6.585,0c-1.854,0 -3.2,1.444 -3.2,3.435l0,2.376l-8.501,0c-2.639,0.002 -4.778,2.141 -4.78,4.78l0,18.663c0.002,2.639 2.141,4.777 4.78,4.78l30.284,0c2.639,-0.003 4.778,-2.141 4.78,-4.78l0,-18.663c-0.002,-2.639 -2.141,-4.778 -4.78,-4.78Zm-20.123,-2.376c0,-0.883 0.476,-1.775 1.54,-1.775l6.585,0c1.012,0 1.837,0.796 1.837,1.775l0,2.376l-9.962,0l0,-2.376Zm23.243,25.816c0,1.724 -1.397,3.121 -3.12,3.123l-30.284,0c-1.722,-0.002 -3.118,-1.398 -3.12,-3.12l0,-18.663c0.002,-1.722 1.398,-3.118 3.12,-3.12l30.284,0c1.722,0.002 3.118,1.398 3.12,3.12l0,18.66l0,0Z" style="fill:#fff;fill-rule:nonzero;"/></g></svg>