<?xml version="1.0" encoding="UTF-8" standalone="no"?><!DOCTYPE svg PUBLIC "-//W3C//DTD SVG 1.1//EN" "http://www.w3.org/Graphics/SVG/1.1/DTD/svg11.dtd"><svg width="100%" height="100%" viewBox="0 0 40 40" version="1.1" xmlns="http://www.w3.org/2000/svg" xmlns:xlink="http://www.w3.org/1999/xlink" xml:space="preserve" xmlns:serif="http://www.serif.com/" style="fill-rule:evenodd;clip-rule:evenodd;stroke-linecap:round;stroke-linejoin:round;stroke-miterlimit:1.5;"><g><circle cx="19.799" cy="19.799" r="19.424" style="fill:none;stroke:#48a23e;stroke-width:0.75px;"/><g><path d="M24.242,33.537c-0.918,0 -2.026,-0.23 -3.245,-0.69c-2.674,-1.008 -5.582,-3 -8.19,-5.608c-2.608,-2.608 -4.6,-5.517 -5.608,-8.19c-0.917,-2.43 -0.92,-4.426 -0.008,-5.338c0.132,-0.132 0.266,-0.273 0.404,-0.418c0.834,-0.875 1.792,-1.87 3.024,-1.817c0.86,0.035 1.694,0.57 2.548,1.631c2.52,3.136 1.385,4.254 0.07,5.55l-0.233,0.23c-0.215,0.215 -0.622,1.212 3.162,4.995c1.235,1.235 2.288,2.139 3.129,2.686c0.531,0.345 1.477,0.865 1.866,0.476l0.234,-0.236c1.295,-1.313 2.413,-2.446 5.546,0.074c1.062,0.852 1.595,1.686 1.632,2.547c0.051,1.248 -0.943,2.191 -1.819,3.024c-0.144,0.138 -0.286,0.271 -0.417,0.403c-0.456,0.453 -1.18,0.681 -2.095,0.681Zm-13.711,-21.321c-0.887,0 -1.688,0.843 -2.397,1.589c-0.143,0.148 -0.281,0.294 -0.417,0.43c-0.68,0.679 -0.61,2.466 0.176,4.552c0.973,2.577 2.904,5.392 5.439,7.928c2.535,2.535 5.35,4.466 7.927,5.438c2.088,0.788 3.873,0.855 4.553,0.176c0.136,-0.136 0.281,-0.274 0.43,-0.417c0.763,-0.724 1.626,-1.544 1.589,-2.455c-0.026,-0.626 -0.481,-1.298 -1.355,-2c-2.612,-2.099 -3.342,-1.358 -4.553,-0.13l-0.237,0.24c-0.578,0.579 -1.519,0.45 -2.795,-0.379c-0.885,-0.575 -1.979,-1.512 -3.25,-2.784c-3.14,-3.14 -4.145,-5.06 -3.161,-6.045l0.236,-0.234c1.23,-1.211 1.973,-1.942 -0.127,-4.555c-0.702,-0.872 -1.375,-1.328 -2.001,-1.354c-0.019,0 -0.038,0 -0.057,0Z" style="fill:#0d1b68;fill-rule:nonzero;"/><path d="M26.708,27.54c-0.115,0 -0.227,-0.053 -0.3,-0.152c-0.12,-0.167 -0.084,-0.398 0.081,-0.519c0.769,-0.561 1.452,-1.231 2.031,-1.991c1.306,-1.717 1.996,-3.768 1.996,-5.931c0.001,-5.407 -4.397,-9.805 -9.803,-9.805c-1.638,0 -3.26,0.413 -4.688,1.191c-0.18,0.099 -0.405,0.033 -0.503,-0.148c-0.099,-0.179 -0.032,-0.405 0.147,-0.503c1.538,-0.838 3.282,-1.282 5.044,-1.282c5.815,0 10.546,4.731 10.546,10.547c0,2.327 -0.743,4.533 -2.149,6.381c-0.622,0.817 -1.357,1.537 -2.183,2.141c-0.066,0.048 -0.143,0.071 -0.219,0.071Z" style="fill:#0d1b68;fill-rule:nonzero;"/><g><path d="M18.648,14.935c0.443,-0.134 0.867,-0.217 1.325,-0.217c1.184,0 1.909,0.592 1.909,1.6c0,0.558 -0.309,0.983 -0.967,1.417l-1.325,0.891c-0.409,0.276 -0.592,0.709 -0.592,1.176l2.708,0c0.058,0 0.092,0.033 0.092,0.091l0,0.642c0,0.058 -0.034,0.091 -0.092,0.091l-3.559,0c-0.058,0 -0.091,-0.033 -0.091,-0.091l0,-0.4c0,-1.017 0.333,-1.75 1.083,-2.242l1.317,-0.875c0.333,-0.226 0.482,-0.442 0.482,-0.7c0,-0.467 -0.366,-0.766 -0.967,-0.766c-0.374,0 -0.733,0.066 -1.049,0.174l-0.484,0.159c-0.049,0.016 -0.091,-0.009 -0.108,-0.059l-0.208,-0.625c-0.025,-0.049 0,-0.092 0.058,-0.108l0.468,-0.158Z" style="fill:#48a23e;fill-rule:nonzero;"/><path d="M27.026,19.043c0,0.059 -0.033,0.092 -0.091,0.092l-0.517,0l0,1.401c0,0.058 -0.033,0.091 -0.092,0.091l-0.749,0c-0.059,0 -0.092,-0.033 -0.092,-0.091l0,-1.401l-2.793,0c-0.058,0 -0.091,-0.033 -0.091,-0.092l0,-0.7c0,-0.049 0.009,-0.083 0.042,-0.116c0.208,-0.241 0.391,-0.467 0.592,-0.741l1.542,-1.984c0.158,-0.209 0.282,-0.409 0.424,-0.642c0.034,-0.042 0.067,-0.058 0.117,-0.058l1.008,0c0.058,0 0.092,0.033 0.092,0.091l0,3.417l0.516,0c0.058,0 0.091,0.033 0.091,0.092l0,0.641l0.001,0Zm-1.541,-2.175c0,-0.266 0.016,-0.533 0.049,-0.817c0.017,-0.1 -0.057,-0.125 -0.124,-0.033l-1.351,1.716c-0.108,0.15 -0.266,0.342 -0.383,0.45c-0.058,0.067 -0.025,0.125 0.042,0.125l1.767,0l0,-1.441Z" style="fill:#48a23e;fill-rule:nonzero;"/></g></g></g></svg>