<?xml version="1.0" encoding="UTF-8" standalone="no"?><!DOCTYPE svg PUBLIC "-//W3C//DTD SVG 1.1//EN" "http://www.w3.org/Graphics/SVG/1.1/DTD/svg11.dtd"><svg width="100%" height="100%" viewBox="0 0 40 40" version="1.1" xmlns="http://www.w3.org/2000/svg" xmlns:xlink="http://www.w3.org/1999/xlink" xml:space="preserve" xmlns:serif="http://www.serif.com/" style="fill-rule:evenodd;clip-rule:evenodd;stroke-linecap:round;stroke-linejoin:round;stroke-miterlimit:1.5;"><g><circle cx="19.799" cy="19.799" r="19.424" style="fill:none;stroke:#48a23e;stroke-width:0.75px;"/><g><path d="M28.946,11.487c-2.337,-2.337 -5.445,-3.624 -8.751,-3.624c-3.305,0 -6.413,1.287 -8.75,3.624c-2.337,2.338 -3.625,5.445 -3.625,8.751c0,3.544 1.524,6.924 4.182,9.273c0.152,0.135 0.384,0.12 0.518,-0.032c0.135,-0.152 0.121,-0.384 -0.031,-0.518c-2.5,-2.21 -3.933,-5.39 -3.933,-8.723c0,-3.109 1.21,-6.032 3.409,-8.231c2.198,-2.198 5.121,-3.409 8.23,-3.409c3.11,0 6.033,1.211 8.231,3.409c2.199,2.199 3.409,5.122 3.409,8.231c0,3.333 -1.433,6.513 -3.933,8.723c-0.152,0.134 -0.166,0.366 -0.032,0.518c0.073,0.083 0.174,0.124 0.276,0.124c0.087,0 0.173,-0.03 0.243,-0.092c2.657,-2.349 4.181,-5.729 4.181,-9.273c0,-3.306 -1.287,-6.413 -3.624,-8.751Z" style="fill:#0d1b68;fill-rule:nonzero;"/><path d="M25.11,27.731l-8.24,0c-0.203,0 -0.368,0.164 -0.368,0.367c0,0.203 0.165,0.368 0.368,0.368l8.24,0c0.29,0 0.525,0.236 0.525,0.525l0,0.822c0,0.29 -0.235,0.526 -0.525,0.526l-9.829,0c-0.29,0 -0.525,-0.236 -0.525,-0.526l0,-0.822c0,-0.289 0.235,-0.525 0.525,-0.525l0.364,0c0.203,0 0.367,-0.165 0.367,-0.368c0,-0.203 -0.164,-0.367 -0.367,-0.367l-0.364,0c-0.695,0 -1.261,0.565 -1.261,1.26l0,0.822c0,0.696 0.566,1.261 1.261,1.261l9.829,0c0.695,0 1.26,-0.566 1.26,-1.261l0,-0.822c0,-0.695 -0.565,-1.26 -1.26,-1.26Z" style="fill:#48a23e;fill-rule:nonzero;"/><path d="M26.431,11.903c-1.81,-1.357 -3.967,-2.074 -6.236,-2.074c-4.187,0 -7.949,2.491 -9.585,6.346c-0.074,0.174 -0.003,0.377 0.164,0.467c0.055,0.03 0.115,0.044 0.174,0.044c0.119,0 0.235,-0.058 0.306,-0.164c1.587,-2.376 4.238,-3.795 7.091,-3.795c2.078,0 4.079,0.756 5.635,2.129c0.152,0.135 0.384,0.12 0.518,-0.032c0.135,-0.152 0.12,-0.385 -0.032,-0.519c-1.69,-1.492 -3.864,-2.313 -6.121,-2.313c-1.863,0 -3.647,0.557 -5.147,1.562c1.791,-1.877 4.299,-2.99 6.997,-2.99c2.109,0 4.113,0.667 5.795,1.928c0.163,0.121 0.393,0.088 0.515,-0.074c0.122,-0.163 0.089,-0.393 -0.074,-0.515Z" style="fill:#0d1b68;fill-rule:nonzero;"/><path d="M28.339,13.755c-0.126,-0.158 -0.357,-0.185 -0.516,-0.058c-0.159,0.127 -0.185,0.358 -0.059,0.517c1.301,1.631 2.022,3.58 2.098,5.656l-2.364,0c-0.154,-1.039 -0.483,-2.034 -0.977,-2.964c-0.096,-0.179 -0.318,-0.247 -0.498,-0.152c-0.179,0.095 -0.247,0.318 -0.151,0.497c0.502,0.945 0.818,1.964 0.939,3.028c0.021,0.186 0.178,0.326 0.365,0.326l3.06,0c0.203,0 0.368,-0.164 0.368,-0.367c0,-2.382 -0.783,-4.624 -2.265,-6.483Z" style="fill:#0d1b68;fill-rule:nonzero;"/><path d="M27.731,12.095c-0.159,-0.105 -0.372,-0.071 -0.49,0.079l-6.378,8.057c-0.126,0.159 -0.1,0.39 0.06,0.516c0.159,0.126 0.39,0.099 0.516,-0.06l3.805,-4.806l-4.301,8.009c-0.032,0.054 -0.088,0.14 -0.115,0.174c-0.134,0.169 -0.327,0.276 -0.541,0.3c-0.215,0.025 -0.426,-0.036 -0.595,-0.171c-0.169,-0.134 -0.276,-0.326 -0.3,-0.541c-0.024,-0.215 0.036,-0.426 0.172,-0.596l1.149,-1.452c0.126,-0.159 0.099,-0.39 -0.06,-0.516c-0.159,-0.126 -0.39,-0.099 -0.516,0.06l-1.149,1.451c-0.257,0.323 -0.373,0.726 -0.326,1.136c0.046,0.41 0.249,0.777 0.572,1.033c0.276,0.22 0.611,0.337 0.958,0.337c0.059,0 0.118,-0.004 0.178,-0.01c0.409,-0.047 0.776,-0.25 1.033,-0.573c0.068,-0.085 0.157,-0.231 0.174,-0.259c0.003,-0.005 0.007,-0.011 0.009,-0.016l6.267,-11.671c0.09,-0.168 0.037,-0.377 -0.122,-0.481Z" style="fill:#48a23e;fill-rule:nonzero;"/><path d="M20.55,23.282c-0.18,-0.274 -0.622,-0.175 -0.669,0.15c-0.022,0.154 0.058,0.312 0.198,0.382c0.137,0.067 0.303,0.045 0.415,-0.059c0.131,-0.12 0.156,-0.326 0.056,-0.473Z" style="fill:#48a23e;fill-rule:nonzero;"/></g></g></svg>