<?xml version="1.0" encoding="UTF-8" standalone="no"?><!DOCTYPE svg PUBLIC "-//W3C//DTD SVG 1.1//EN" "http://www.w3.org/Graphics/SVG/1.1/DTD/svg11.dtd"><svg width="100%" height="100%" viewBox="0 0 18 18" version="1.1" xmlns="http://www.w3.org/2000/svg" xmlns:xlink="http://www.w3.org/1999/xlink" xml:space="preserve" xmlns:serif="http://www.serif.com/" style="fill-rule:evenodd;clip-rule:evenodd;stroke-linejoin:round;stroke-miterlimit:1.41421;"><g><path d="M8.991,0.81c-3.544,0 -6.685,2.282 -7.78,5.653c-1.095,3.37 0.104,7.063 2.971,9.146c2.868,2.084 6.75,2.084 9.618,0c2.868,-2.083 4.067,-5.776 2.972,-9.146c-1.095,-3.371 -4.236,-5.653 -7.781,-5.653m8.551,5.402c1.204,3.705 -0.115,7.764 -3.266,10.053c-3.151,2.289 -7.418,2.289 -10.569,0c-3.152,-2.289 -4.47,-6.348 -3.266,-10.053c1.203,-3.704 4.656,-6.212 8.55,-6.212c3.895,0 7.347,2.508 8.551,6.212" style="fill:#fff;fill-rule:nonzero;"/><path d="M10.213,6.406c0.244,-0.009 0.488,-0.002 0.732,-0.002l0.101,0l0,-1.269c-0.13,-0.013 -0.266,-0.031 -0.403,-0.038c-0.25,-0.011 -0.5,-0.023 -0.751,-0.018c-0.382,0.008 -0.744,0.101 -1.06,0.328c-0.362,0.261 -0.561,0.627 -0.637,1.059c-0.031,0.177 -0.04,0.363 -0.044,0.544c-0.007,0.285 -0.001,0.569 -0.001,0.854l0,0.107l-1.214,0l0,1.417l1.207,0l0,3.562l1.475,0l0,-3.556l1.203,0c0.061,-0.472 0.121,-0.939 0.184,-1.424c-0.096,0 -0.183,-0.001 -0.27,0c-0.342,0.002 -1.127,0 -1.127,0c0,0 0.003,-0.703 0.011,-1.007c0.012,-0.417 0.26,-0.545 0.594,-0.557" style="fill:#fff;"/></g></svg>