<?xml version="1.0" encoding="UTF-8" standalone="no"?><!DOCTYPE svg PUBLIC "-//W3C//DTD SVG 1.1//EN" "http://www.w3.org/Graphics/SVG/1.1/DTD/svg11.dtd"><svg width="100%" height="100%" viewBox="0 0 18 18" version="1.1" xmlns="http://www.w3.org/2000/svg" xmlns:xlink="http://www.w3.org/1999/xlink" xml:space="preserve" xmlns:serif="http://www.serif.com/" style="fill-rule:evenodd;clip-rule:evenodd;stroke-linejoin:round;stroke-miterlimit:1.41421;"><g><path d="M8.991,0.81c-3.544,0 -6.685,2.282 -7.78,5.653c-1.095,3.37 0.104,7.063 2.971,9.146c2.868,2.084 6.75,2.084 9.618,0c2.868,-2.083 4.067,-5.776 2.972,-9.146c-1.095,-3.371 -4.236,-5.653 -7.781,-5.653m8.551,5.402c1.204,3.705 -0.115,7.764 -3.266,10.053c-3.151,2.289 -7.418,2.289 -10.569,0c-3.152,-2.289 -4.47,-6.348 -3.266,-10.053c1.203,-3.704 4.656,-6.212 8.55,-6.212c3.895,0 7.347,2.508 8.551,6.212" style="fill:#fff;fill-rule:nonzero;"/><path d="M7.66,10.942c-0.906,-0.032 -1.472,-0.682 -1.622,-1.21c0.252,0.048 0.5,0.038 0.747,-0.023c0.007,-0.001 0.013,-0.005 0.026,-0.011c-0.492,-0.115 -0.87,-0.376 -1.133,-0.8c-0.175,-0.281 -0.258,-0.589 -0.255,-0.926c0.245,0.13 0.501,0.204 0.776,0.21c-0.369,-0.265 -0.617,-0.612 -0.718,-1.057c-0.101,-0.443 -0.035,-0.864 0.187,-1.262c0.944,1.111 2.138,1.721 3.595,1.821c-0.01,-0.069 -0.021,-0.129 -0.028,-0.191c-0.048,-0.41 0.033,-0.792 0.255,-1.139c0.277,-0.435 0.673,-0.706 1.182,-0.788c0.586,-0.096 1.098,0.071 1.526,0.486c0.028,0.028 0.052,0.036 0.092,0.028c0.359,-0.079 0.697,-0.208 1.014,-0.391c0.008,-0.004 0.015,-0.008 0.023,-0.012c0.002,0 0.005,0 0.012,0c-0.138,0.405 -0.389,0.718 -0.747,0.948c0.338,-0.037 0.66,-0.126 0.972,-0.261c0.002,0.003 0.004,0.006 0.006,0.008c-0.066,0.087 -0.131,0.177 -0.2,0.262c-0.185,0.228 -0.397,0.428 -0.634,0.602c-0.02,0.014 -0.03,0.028 -0.029,0.055c0.01,0.258 0,0.516 -0.032,0.773c-0.067,0.542 -0.218,1.058 -0.449,1.552c-0.239,0.51 -0.55,0.969 -0.942,1.374c-0.664,0.686 -1.464,1.129 -2.396,1.335c-0.319,0.07 -0.643,0.105 -0.97,0.115c-1.005,0.029 -1.935,-0.22 -2.79,-0.748c-0.011,-0.007 -0.021,-0.015 -0.041,-0.027c0.608,0.066 1.187,-0.012 1.744,-0.24c0.295,-0.122 0.569,-0.28 0.829,-0.483" style="fill:#fff;"/></g></svg>